<?xml version="1.0" encoding="UTF-8" standalone="no"?>
<!-- Created with Inkscape (http://www.inkscape.org/) -->

<svg
   width="180"
   height="180"
   viewBox="0 0 47.625 47.625"
   version="1.1"
   id="svg5"
   xmlns="http://www.w3.org/2000/svg"
   xmlns:svg="http://www.w3.org/2000/svg">
  <defs
     id="defs2" />
  <g
     id="layer1">
    <path
       style="fill:#ffaaaa"
       id="path221"
       d="m 14.041084,7.8016176 a 6.3353248,6.8761363 0 0 1 -3e-6,0.00646 l -6.335322,-0.00646 z" />
    <path
       style="fill:#ffd42a"
       id="path249"
       d="M 22.841859,0.15480979 A 23.660582,23.736652 0 0 1 47.489585,22.822333 23.660582,23.736652 0 0 1 24.930111,47.581818 23.660582,23.736652 0 0 1 0.21761586,24.985381 23.660582,23.736652 0 0 1 22.706138,0.16102004" />
    <path
       style="fill:#e3dedb"
       id="path371"
       d="M 23.111358,7.5047751 A 16.940689,16.425323 0 0 1 40.75883,23.190281 16.940689,16.425323 0 0 1 24.606521,40.323386 16.940689,16.425323 0 0 1 6.9126746,24.68707 16.940689,16.425323 0 0 1 23.014183,7.5090725" />
    <text
       xml:space="preserve"
       style="font-style:normal;font-weight:normal;font-size:29.0342px;line-height:1.25;font-family:sans-serif;fill:#000000;fill-opacity:1;stroke:none;stroke-width:0.340243"
       x="14.289792"
       y="34.716679"
       id="text7293"><tspan
         id="tspan7291"
         style="font-size:29.0342px;stroke-width:0.340243"
         x="14.289792"
         y="34.716679">1</tspan></text>
  </g>
</svg>
